<svg height="478pt" viewBox="-42 0 478 478.40001" width="478pt" xmlns="http://www.w3.org/2000/svg"><path d="m368.582031 122.898438c-.4375-5.179688-4.800781-9.148438-10-9.097657h-76v-28.800781c0-46.945312-38.058593-85-85-85-46.945312 0-85 38.054688-85 85v28.800781h-76c-5.175781.019531-9.496093 3.949219-10 9.097657l-26.199219 301.203124c-1.191406 13.964844 3.527344 27.792969 13.015626 38.117188 9.484374 10.320312 22.863281 16.191406 36.882812 16.179688h294.699219c14.019531.011718 27.398437-5.859376 36.882812-16.179688 9.488281-10.324219 14.210938-24.152344 13.019531-38.117188zm-236-37.898438c0-35.898438 29.101563-65 65-65 35.898438 0 65 29.101562 65 65v28.800781h-130zm234.5 363.699219c-5.65625 6.226562-13.691406 9.753906-22.101562 9.699219h-294.800781c-8.410157.003906-16.433594-3.523438-22.121094-9.71875-5.683594-6.199219-8.507813-14.5-7.777344-22.878907l25.398438-292h66.902343v62.398438c-16.082031 4.949219-26.125 20.914062-23.621093 37.554687 2.5 16.636719 16.796874 28.941406 33.621093 28.941406s31.117188-12.304687 33.621094-28.941406c2.5-16.640625-7.542969-32.605468-23.621094-37.554687v-62.5h130v62.5c-16.082031 4.949219-26.125 20.914062-23.621093 37.554687 2.5 16.636719 16.796874 28.941406 33.621093 28.941406s31.117188-12.304687 33.621094-28.941406c2.5-16.640625-7.542969-32.605468-23.621094-37.554687v-62.5h66.800781l25.398438 292c.820312 8.414062-1.980469 16.777343-7.699219 23zm-246-233.898438c.996094.132813 2.003907.132813 3 0 7.394531.796875 12.878907 7.242188 12.480469 14.667969-.402344 7.429688-6.542969 13.25-13.980469 13.25-7.441406 0-13.582031-5.820312-13.980469-13.25-.398437-7.425781 5.082032-13.871094 12.480469-14.667969zm150 0c.996094.132813 2.003907.132813 3 0 7.394531.796875 12.878907 7.242188 12.480469 14.667969-.402344 7.429688-6.542969 13.25-13.980469 13.25-7.441406 0-13.582031-5.820312-13.980469-13.25-.398437-7.425781 5.082032-13.871094 12.480469-14.667969zm0 0"/></svg>